<svg width="1024" height="1024" viewBox="0 0 1024 1024" fill="none" xmlns="http://www.w3.org/2000/svg">
  <defs>
    <linearGradient id="background" x1="122" y1="84" x2="898" y2="920" gradientUnits="userSpaceOnUse">
      <stop stop-color="#10253D"/>
      <stop offset="0.52" stop-color="#0A2F3A"/>
      <stop offset="1" stop-color="#101629"/>
    </linearGradient>
    <linearGradient id="topCard" x1="244" y1="252" x2="804" y2="394" gradientUnits="userSpaceOnUse">
      <stop stop-color="#2C6CCB"/>
      <stop offset="1" stop-color="#194B98"/>
    </linearGradient>
    <linearGradient id="middleCard" x1="204" y1="428" x2="768" y2="578" gradientUnits="userSpaceOnUse">
      <stop stop-color="#087D76"/>
      <stop offset="1" stop-color="#075B56"/>
    </linearGradient>
    <linearGradient id="bottomCard" x1="256" y1="604" x2="824" y2="756" gradientUnits="userSpaceOnUse">
      <stop stop-color="#A766C5"/>
      <stop offset="1" stop-color="#67409A"/>
    </linearGradient>
    <filter id="cardShadow" x="120" y="178" width="784" height="650" filterUnits="userSpaceOnUse" color-interpolation-filters="sRGB">
      <feDropShadow dx="0" dy="22" stdDeviation="24" flood-color="#02050A" flood-opacity="0.30"/>
    </filter>
  </defs>

  <rect width="1024" height="1024" fill="url(#background)"/>
  <circle cx="804" cy="154" r="326" fill="#2C6CCB" opacity="0.24"/>
  <circle cx="188" cy="846" r="362" fill="#0FA898" opacity="0.22"/>
  <circle cx="842" cy="808" r="226" fill="#A766C5" opacity="0.16"/>

  <path d="M92 280C248 204 390 196 518 256C646 316 786 294 954 190" stroke="#FFFFFF" stroke-width="34" stroke-linecap="round" opacity="0.07"/>
  <path d="M20 742C180 626 356 606 548 682C696 740 842 718 1012 616" stroke="#FFFFFF" stroke-width="42" stroke-linecap="round" opacity="0.06"/>

  <g filter="url(#cardShadow)">
    <rect x="244" y="250" width="560" height="146" rx="44" fill="url(#topCard)"/>
    <rect x="204" y="426" width="564" height="152" rx="46" fill="url(#middleCard)"/>
    <rect x="256" y="604" width="568" height="154" rx="48" fill="url(#bottomCard)"/>
  </g>

  <path d="M302 324H622" stroke="#FFFFFF" stroke-width="26" stroke-linecap="round" opacity="0.76"/>
  <path d="M302 368H498" stroke="#FFFFFF" stroke-width="18" stroke-linecap="round" opacity="0.42"/>
  <circle cx="722" cy="323" r="34" fill="#EAF4FF"/>

  <path d="M266 500H596" stroke="#FFFFFF" stroke-width="28" stroke-linecap="round" opacity="0.78"/>
  <path d="M266 546H490" stroke="#FFFFFF" stroke-width="18" stroke-linecap="round" opacity="0.40"/>
  <circle cx="688" cy="502" r="34" fill="#E6FFF8"/>

  <path d="M320 678H646" stroke="#FFFFFF" stroke-width="28" stroke-linecap="round" opacity="0.78"/>
  <path d="M320 724H534" stroke="#FFFFFF" stroke-width="18" stroke-linecap="round" opacity="0.40"/>
  <circle cx="744" cy="680" r="34" fill="#F8EDFF"/>

  <path d="M192 324C192 446 192 562 192 682C192 716 220 744 254 744H280" stroke="#F6A23A" stroke-width="42" stroke-linecap="round" stroke-linejoin="round"/>
  <circle cx="192" cy="324" r="46" fill="#F6A23A"/>
  <circle cx="192" cy="502" r="34" fill="#FFE1A8"/>
  <circle cx="192" cy="680" r="34" fill="#FFE1A8"/>

  <path d="M792 246L846 300L792 354" stroke="#FFE1A8" stroke-width="30" stroke-linecap="round" stroke-linejoin="round" opacity="0.92"/>
</svg>
